<?xml version="1.0" encoding="utf-8"?>
<!-- Generator: Adobe Illustrator 22.0.1, SVG Export Plug-In . SVG Version: 6.00 Build 0)  -->
<svg version="1.1" id="Layer_1" xmlns="http://www.w3.org/2000/svg" xmlns:xlink="http://www.w3.org/1999/xlink" x="0px" y="0px"
	 viewBox="0 0 366.3 70" style="enable-background:new 0 0 366.3 70;" xml:space="preserve">
<style type="text/css">
	.st0{fill:#FFFFFF;}
	.st1{fill:url(#SVGID_1_);}
	.st2{fill:url(#SVGID_2_);}
	.st3{fill:url(#SVGID_3_);}
	.st4{fill:url(#SVGID_4_);}
	.st5{fill:url(#SVGID_5_);}
	.st6{fill:url(#SVGID_6_);}
	.st7{fill:url(#SVGID_7_);}
	.st8{fill:url(#SVGID_8_);}
	.st9{fill:url(#SVGID_9_);}
	.st10{fill:url(#SVGID_10_);}
	.st11{fill:url(#SVGID_11_);}
	.st12{fill:url(#SVGID_12_);}
	.st13{fill:url(#SVGID_13_);}
	.st14{fill:url(#SVGID_14_);}
	.st15{fill:url(#SVGID_15_);}
	.st16{fill:url(#SVGID_16_);stroke:url(#SVGID_17_);stroke-width:2;stroke-miterlimit:10;}
	.st17{fill:none;stroke:url(#SVGID_18_);stroke-width:1.2;stroke-miterlimit:10;}
	.st18{fill:none;stroke:url(#SVGID_19_);stroke-width:1.2;stroke-linecap:round;stroke-miterlimit:10;}
</style>
<title>etherwalletcx-logo</title>
<path class="st0" d="M25,27.5L25,27.5L25,27.5L25,27.5z"/>
<g>
	<linearGradient id="SVGID_1_" gradientUnits="userSpaceOnUse" x1="79.0228" y1="34.1032" x2="93.5384" y2="34.1032">
		<stop  offset="2.788190e-02" style="stop-color:#00FDFA"/>
		<stop  offset="0.9987" style="stop-color:#0168E5"/>
	</linearGradient>
	<path class="st1" d="M79,22.1h14.2v3.2H82.8V32h8.8v3.2h-8.8v7.7h10.7v3.2H79V22.1z"/>
	<linearGradient id="SVGID_2_" gradientUnits="userSpaceOnUse" x1="95.2957" y1="34.8684" x2="106.8499" y2="34.8684">
		<stop  offset="2.788190e-02" style="stop-color:#00FDFA"/>
		<stop  offset="0.9987" style="stop-color:#0168E5"/>
	</linearGradient>
	<path class="st2" d="M97.9,40.2v-9h-2.6v-2.8l2.8-0.2l0.4-4.9h3.2v4.9h4.7v3h-4.7v9.1c0,2.1,0.7,3.3,2.6,3.3c0.6,0,1.4-0.2,1.9-0.4
		l0.7,2.8c-1,0.3-2.2,0.7-3.5,0.7C99.3,46.5,97.9,44,97.9,40.2z"/>
	<linearGradient id="SVGID_3_" gradientUnits="userSpaceOnUse" x1="110.202" y1="33.1105" x2="125.076" y2="33.1105">
		<stop  offset="2.788190e-02" style="stop-color:#00FDFA"/>
		<stop  offset="0.9987" style="stop-color:#0168E5"/>
	</linearGradient>
	<path class="st3" d="M110.2,20.1h3.7V27l-0.1,3.5c1.6-1.5,3.4-2.8,5.8-2.8c3.8,0,5.5,2.5,5.5,7.1v11.3h-3.7V35.3
		c0-3.1-0.9-4.3-3-4.3c-1.7,0-2.8,0.8-4.4,2.4v12.7h-3.7V20.1z"/>
	<linearGradient id="SVGID_4_" gradientUnits="userSpaceOnUse" x1="129.1438" y1="37.1142" x2="144.6038" y2="37.1142">
		<stop  offset="2.788190e-02" style="stop-color:#00FDFA"/>
		<stop  offset="0.9987" style="stop-color:#0168E5"/>
	</linearGradient>
	<path class="st4" d="M129.1,37.2c0-5.8,4-9.4,8.2-9.4c4.8,0,7.3,3.4,7.3,8.5c0,0.7-0.1,1.5-0.2,1.9h-11.6c0.3,3.4,2.4,5.5,5.5,5.5
		c1.6,0,3-0.5,4.3-1.3l1.3,2.4c-1.7,1.1-3.7,1.9-6.1,1.9C133,46.5,129.1,43.1,129.1,37.2z M141.4,35.5c0-3.1-1.4-4.9-4-4.9
		c-2.2,0-4.2,1.7-4.6,4.9H141.4z"/>
	<linearGradient id="SVGID_5_" gradientUnits="userSpaceOnUse" x1="148.8016" y1="36.9023" x2="159.347" y2="36.9023">
		<stop  offset="2.788190e-02" style="stop-color:#00FDFA"/>
		<stop  offset="0.9987" style="stop-color:#0168E5"/>
	</linearGradient>
	<path class="st5" d="M148.8,28.2h3.1l0.3,3.2h0.1c1.3-2.3,3.2-3.7,5.1-3.7c0.9,0,1.5,0.1,2,0.4l-0.7,3.3c-0.6-0.2-1.1-0.3-1.8-0.3
		c-1.5,0-3.2,1-4.4,3.8v11.2h-3.7V28.2z"/>
	<linearGradient id="SVGID_6_" gradientUnits="userSpaceOnUse" x1="160.4539" y1="34.1032" x2="177.2478" y2="34.1032">
		<stop  offset="2.788190e-02" style="stop-color:#00FDFA"/>
		<stop  offset="0.9987" style="stop-color:#0168E5"/>
	</linearGradient>
	<path class="st6" d="M160.5,43.8l12-18.5h-10.9v-3.2h15.6v2.2l-12,18.5h12.1v3.2h-16.8V43.8z"/>
	<linearGradient id="SVGID_7_" gradientUnits="userSpaceOnUse" x1="179.5267" y1="37.1142" x2="194.9871" y2="37.1142">
		<stop  offset="2.788190e-02" style="stop-color:#00FDFA"/>
		<stop  offset="0.9987" style="stop-color:#0168E5"/>
	</linearGradient>
	<path class="st7" d="M179.5,37.2c0-5.8,4-9.4,8.2-9.4c4.8,0,7.3,3.4,7.3,8.5c0,0.7-0.1,1.5-0.2,1.9h-11.6c0.3,3.4,2.4,5.5,5.5,5.5
		c1.6,0,3-0.5,4.3-1.3l1.3,2.4c-1.7,1.1-3.7,1.9-6.1,1.9C183.4,46.5,179.5,43.1,179.5,37.2z M191.8,35.5c0-3.1-1.4-4.9-4-4.9
		c-2.2,0-4.2,1.7-4.6,4.9H191.8z"/>
	<linearGradient id="SVGID_8_" gradientUnits="userSpaceOnUse" x1="199.1853" y1="36.9023" x2="209.7303" y2="36.9023">
		<stop  offset="2.788190e-02" style="stop-color:#00FDFA"/>
		<stop  offset="0.9987" style="stop-color:#0168E5"/>
	</linearGradient>
	<path class="st8" d="M199.2,28.2h3.1l0.3,3.2h0.1c1.3-2.3,3.2-3.7,5.1-3.7c0.9,0,1.5,0.1,2,0.4l-0.7,3.3c-0.6-0.2-1.1-0.3-1.8-0.3
		c-1.5,0-3.2,1-4.4,3.8v11.2h-3.7V28.2z"/>
	<linearGradient id="SVGID_9_" gradientUnits="userSpaceOnUse" x1="210.8699" y1="37.1142" x2="227.7293" y2="37.1142">
		<stop  offset="2.788190e-02" style="stop-color:#00FDFA"/>
		<stop  offset="0.9987" style="stop-color:#0168E5"/>
	</linearGradient>
	<path class="st9" d="M210.9,37.2c0-6,4-9.4,8.4-9.4c4.4,0,8.4,3.4,8.4,9.4c0,5.9-4,9.3-8.4,9.3C214.9,46.5,210.9,43.1,210.9,37.2z
		 M223.9,37.2c0-3.8-1.8-6.3-4.6-6.3c-2.8,0-4.6,2.5-4.6,6.3c0,3.8,1.8,6.3,4.6,6.3C222.1,43.4,223.9,40.9,223.9,37.2z"/>
	<linearGradient id="SVGID_10_" gradientUnits="userSpaceOnUse" x1="230.0066" y1="34.1032" x2="257.6063" y2="34.1032">
		<stop  offset="2.788190e-02" style="stop-color:#00FDFA"/>
		<stop  offset="0.9987" style="stop-color:#0168E5"/>
	</linearGradient>
	<path class="st10" d="M230,22.1h3.9l2.2,12.5l1.3,7.7h0.1c0.5-2.6,1.1-5.1,1.6-7.7l3.1-12.5h3.3l3.1,12.5c0.6,2.5,1.1,5.1,1.6,7.7
		h0.2c0.4-2.6,0.8-5.2,1.2-7.7l2.3-12.5h3.6l-4.7,24h-4.7L245,32.8c-0.4-1.9-0.8-3.7-1.1-5.5h-0.2c-0.3,1.8-0.7,3.6-1.1,5.5
		l-3.2,13.3h-4.6L230,22.1z"/>
	<linearGradient id="SVGID_11_" gradientUnits="userSpaceOnUse" x1="259.6248" y1="37.1142" x2="274.076" y2="37.1142">
		<stop  offset="2.788190e-02" style="stop-color:#00FDFA"/>
		<stop  offset="0.9987" style="stop-color:#0168E5"/>
	</linearGradient>
	<path class="st11" d="M259.6,41.3c0-3.8,3.3-5.8,10.7-6.6c0-2.1-0.8-3.9-3.4-3.9c-1.9,0-3.6,0.8-5.2,1.8l-1.4-2.5
		c1.9-1.2,4.4-2.3,7.2-2.3c4.5,0,6.5,2.8,6.5,7.6v10.8H271l-0.3-2h-0.1c-1.6,1.4-3.5,2.5-5.7,2.5C261.8,46.5,259.6,44.5,259.6,41.3z
		 M270.3,41.5v-4.4c-5.3,0.7-7.1,2-7.1,4c0,1.8,1.2,2.5,2.8,2.5C267.6,43.5,268.9,42.8,270.3,41.5z"/>
	<linearGradient id="SVGID_12_" gradientUnits="userSpaceOnUse" x1="279.3807" y1="33.3225" x2="285.1082" y2="33.3225">
		<stop  offset="2.788190e-02" style="stop-color:#00FDFA"/>
		<stop  offset="0.9987" style="stop-color:#0168E5"/>
	</linearGradient>
	<path class="st12" d="M279.4,41.9V20.1h3.7v21.9c0,1,0.5,1.4,0.9,1.4c0.2,0,0.3,0,0.6-0.1l0.5,2.8c-0.5,0.2-1.1,0.3-2,0.3
		C280.4,46.5,279.4,44.8,279.4,41.9z"/>
	<linearGradient id="SVGID_13_" gradientUnits="userSpaceOnUse" x1="289.0799" y1="33.3225" x2="294.8074" y2="33.3225">
		<stop  offset="2.788190e-02" style="stop-color:#00FDFA"/>
		<stop  offset="0.9987" style="stop-color:#0168E5"/>
	</linearGradient>
	<path class="st13" d="M289.1,41.9V20.1h3.7v21.9c0,1,0.5,1.4,0.9,1.4c0.2,0,0.3,0,0.6-0.1l0.5,2.8c-0.5,0.2-1.1,0.3-2,0.3
		C290.1,46.5,289.1,44.8,289.1,41.9z"/>
	<linearGradient id="SVGID_14_" gradientUnits="userSpaceOnUse" x1="297.5086" y1="37.1142" x2="312.9686" y2="37.1142">
		<stop  offset="2.788190e-02" style="stop-color:#00FDFA"/>
		<stop  offset="0.9987" style="stop-color:#0168E5"/>
	</linearGradient>
	<path class="st14" d="M297.5,37.2c0-5.8,4-9.4,8.2-9.4c4.8,0,7.3,3.4,7.3,8.5c0,0.7-0.1,1.5-0.2,1.9h-11.6c0.3,3.4,2.4,5.5,5.5,5.5
		c1.6,0,3-0.5,4.3-1.3l1.3,2.4c-1.7,1.1-3.7,1.9-6.1,1.9C301.4,46.5,297.5,43.1,297.5,37.2z M309.7,35.5c0-3.1-1.4-4.9-4-4.9
		c-2.2,0-4.2,1.7-4.6,4.9H309.7z"/>
	<linearGradient id="SVGID_15_" gradientUnits="userSpaceOnUse" x1="314.7908" y1="34.8684" x2="326.3455" y2="34.8684">
		<stop  offset="2.788190e-02" style="stop-color:#00FDFA"/>
		<stop  offset="0.9987" style="stop-color:#0168E5"/>
	</linearGradient>
	<path class="st15" d="M317.4,40.2v-9h-2.6v-2.8l2.8-0.2l0.4-4.9h3.2v4.9h4.7v3h-4.7v9.1c0,2.1,0.7,3.3,2.6,3.3
		c0.6,0,1.4-0.2,1.9-0.4l0.7,2.8c-1,0.3-2.2,0.7-3.5,0.7C318.8,46.5,317.4,44,317.4,40.2z"/>
</g>
<g>
	<linearGradient id="SVGID_16_" gradientUnits="userSpaceOnUse" x1="33.2184" y1="31.1111" x2="41.1144" y2="39.007">
		<stop  offset="2.788190e-02" style="stop-color:#00FDFA"/>
		<stop  offset="0.9987" style="stop-color:#0168E5"/>
	</linearGradient>
	<linearGradient id="SVGID_17_" gradientUnits="userSpaceOnUse" x1="46.4765" y1="35.059" x2="27.8562" y2="35.059">
		<stop  offset="0" style="stop-color:#00FDFA"/>
		<stop  offset="7.066998e-02" style="stop-color:#00FDFA;stop-opacity:0.8587"/>
		<stop  offset="0.5" style="stop-color:#00FDFA;stop-opacity:0"/>
		<stop  offset="0.6342" style="stop-color:#00FAFA;stop-opacity:0.2691"/>
		<stop  offset="0.7149" style="stop-color:#00F2F8;stop-opacity:0.431"/>
		<stop  offset="0.7815" style="stop-color:#00E4F6;stop-opacity:0.5645"/>
		<stop  offset="0.8404" style="stop-color:#00CFF4;stop-opacity:0.6826"/>
		<stop  offset="0.8942" style="stop-color:#00B5F0;stop-opacity:0.7905"/>
		<stop  offset="0.9443" style="stop-color:#0195EB;stop-opacity:0.8909"/>
		<stop  offset="0.9907" style="stop-color:#016FE6;stop-opacity:0.9839"/>
		<stop  offset="0.9987" style="stop-color:#0168E5"/>
	</linearGradient>
	<polygon class="st16" points="45.1,35.1 37.2,43 29.3,35.1 37.2,27.2 	"/>
	<linearGradient id="SVGID_18_" gradientUnits="userSpaceOnUse" x1="25.2964" y1="23.1891" x2="49.0364" y2="46.929">
		<stop  offset="2.788190e-02" style="stop-color:#00FDFA"/>
		<stop  offset="0.9987" style="stop-color:#0168E5"/>
	</linearGradient>
	
		<rect x="21" y="18.9" transform="matrix(0.7071 -0.7071 0.7071 0.7071 -13.9047 36.5491)" class="st17" width="32.4" height="32.4"/>
	<linearGradient id="SVGID_19_" gradientUnits="userSpaceOnUse" x1="20.6793" y1="51.5462" x2="53.6535" y2="18.5719">
		<stop  offset="2.788190e-02" style="stop-color:#00FDFA"/>
		<stop  offset="0.9987" style="stop-color:#0168E5"/>
	</linearGradient>
	<polygon class="st18" points="37.2,3.3 18.8,35.1 37.2,66.8 55.5,35.1 	"/>
</g>
</svg>
