<?xml version="1.0" encoding="utf-8"?>
<!-- Generator: Adobe Illustrator 22.0.1, SVG Export Plug-In . SVG Version: 6.00 Build 0)  -->
<svg version="1.1" id="Layer_1" xmlns="http://www.w3.org/2000/svg" xmlns:xlink="http://www.w3.org/1999/xlink" x="0px" y="0px"
	 viewBox="0 0 315 70" style="enable-background:new 0 0 315 70;" xml:space="preserve">
<style type="text/css">
	.st0{fill:url(#SVGID_1_);stroke:url(#SVGID_2_);stroke-width:2;stroke-miterlimit:10;}
	.st1{fill:none;stroke:url(#SVGID_3_);stroke-width:1.2;stroke-miterlimit:10;}
	.st2{fill:none;stroke:url(#SVGID_4_);stroke-width:1.2;stroke-linecap:round;stroke-miterlimit:10;}
	.st3{fill:url(#SVGID_5_);}
	.st4{fill:url(#SVGID_6_);}
	.st5{fill:url(#SVGID_7_);}
	.st6{fill:url(#SVGID_8_);}
	.st7{fill:url(#SVGID_9_);}
	.st8{fill:url(#SVGID_10_);}
	.st9{fill:url(#SVGID_11_);}
	.st10{fill:url(#SVGID_12_);}
	.st11{fill:url(#SVGID_13_);}
	.st12{fill:url(#SVGID_14_);}
	.st13{fill:url(#SVGID_15_);}
	.st14{fill:url(#SVGID_16_);}
	.st15{fill:url(#SVGID_17_);}
	.st16{fill:url(#SVGID_18_);}
	.st17{fill:url(#SVGID_19_);}
</style>
<title>etherwallet-logo</title>
<g>
	
		<linearGradient id="SVGID_1_" gradientUnits="userSpaceOnUse" x1="29.3135" y1="40.8365" x2="36.8712" y2="33.2787" gradientTransform="matrix(1 0 0 -1 0 72)">
		<stop  offset="2.788190e-02" style="stop-color:#00FDFA"/>
		<stop  offset="0.9987" style="stop-color:#0168E5"/>
	</linearGradient>
	
		<linearGradient id="SVGID_2_" gradientUnits="userSpaceOnUse" x1="42.0609" y1="37.0453" x2="24.1324" y2="37.0453" gradientTransform="matrix(1 0 0 -1 0 72)">
		<stop  offset="0" style="stop-color:#00FDFA"/>
		<stop  offset="7.066998e-02" style="stop-color:#00FDFA;stop-opacity:0.8587"/>
		<stop  offset="0.5" style="stop-color:#00FDFA;stop-opacity:0"/>
		<stop  offset="0.6342" style="stop-color:#00FAFA;stop-opacity:0.2691"/>
		<stop  offset="0.7149" style="stop-color:#00F2F8;stop-opacity:0.431"/>
		<stop  offset="0.7815" style="stop-color:#00E4F6;stop-opacity:0.5645"/>
		<stop  offset="0.8404" style="stop-color:#00CFF4;stop-opacity:0.6826"/>
		<stop  offset="0.8942" style="stop-color:#00B5F0;stop-opacity:0.7905"/>
		<stop  offset="0.9443" style="stop-color:#0195EB;stop-opacity:0.8909"/>
		<stop  offset="0.9907" style="stop-color:#016FE6;stop-opacity:0.9839"/>
		<stop  offset="0.9987" style="stop-color:#0168E5"/>
	</linearGradient>
	<polygon class="st0" points="40.6,34.9 33.1,42.5 25.5,34.9 33.1,27.4 	"/>
	
		<linearGradient id="SVGID_3_" gradientUnits="userSpaceOnUse" x1="-404.7419" y1="-58.2815" x2="-381.9825" y2="-81.0411" gradientTransform="matrix(0.7071 -0.7071 -0.7071 -0.7071 261.9764 -292.4283)">
		<stop  offset="2.788190e-02" style="stop-color:#00FDFA"/>
		<stop  offset="0.9987" style="stop-color:#017EE5"/>
	</linearGradient>
	<rect x="17.6" y="19.5" transform="matrix(0.7071 -0.7071 0.7071 0.7071 -15.0271 33.674)" class="st1" width="31" height="31"/>
	
		<linearGradient id="SVGID_4_" gradientUnits="userSpaceOnUse" x1="17.2757" y1="21.2227" x2="48.8892" y2="52.8362" gradientTransform="matrix(1 0 0 -1 0 72)">
		<stop  offset="2.788190e-02" style="stop-color:#00FDFA"/>
		<stop  offset="0.9987" style="stop-color:#019AE5"/>
	</linearGradient>
	<polygon class="st2" points="33.1,4.5 15.5,34.9 33.1,65.4 50.6,34.9 	"/>
</g>
<g>
	<linearGradient id="SVGID_5_" gradientUnits="userSpaceOnUse" x1="75.5356" y1="34.2287" x2="88.0239" y2="34.2287">
		<stop  offset="2.788190e-02" style="stop-color:#00FDFA"/>
		<stop  offset="0.9987" style="stop-color:#019DE5"/>
	</linearGradient>
	<path class="st3" d="M75.5,23.9h12.2v2.7h-8.9v5.7h7.6v2.7h-7.6v6.7H88v2.7H75.5V23.9z"/>
	<linearGradient id="SVGID_6_" gradientUnits="userSpaceOnUse" x1="89.5342" y1="34.8869" x2="99.4741" y2="34.8869">
		<stop  offset="2.788190e-02" style="stop-color:#00FDFA"/>
		<stop  offset="0.9987" style="stop-color:#019DE5"/>
	</linearGradient>
	<path class="st4" d="M91.8,39.5v-7.8h-2.2v-2.4l2.4-0.2l0.4-4.3H95v4.3h4v2.6h-4v7.8c0,1.8,0.6,2.8,2.2,2.8c0.5,0,1.2-0.2,1.7-0.4
		l0.6,2.4c-0.9,0.3-1.9,0.6-3,0.6C93,44.9,91.8,42.7,91.8,39.5z"/>
	<linearGradient id="SVGID_7_" gradientUnits="userSpaceOnUse" x1="102.3569" y1="33.3747" x2="115.1528" y2="33.3747">
		<stop  offset="2.788190e-02" style="stop-color:#00FDFA"/>
		<stop  offset="0.9987" style="stop-color:#019DE5"/>
	</linearGradient>
	<path class="st5" d="M102.4,22.2h3.2v5.9l-0.1,3.1c1.3-1.3,2.9-2.4,5-2.4c3.3,0,4.7,2.2,4.7,6.1v9.7h-3.2v-9.3
		c0-2.7-0.8-3.7-2.6-3.7c-1.4,0-2.4,0.7-3.8,2.1v10.9h-3.2V22.2z"/>
	<linearGradient id="SVGID_8_" gradientUnits="userSpaceOnUse" x1="118.6504" y1="36.8188" x2="131.9507" y2="36.8188">
		<stop  offset="2.788190e-02" style="stop-color:#00FDFA"/>
		<stop  offset="0.9987" style="stop-color:#019DE5"/>
	</linearGradient>
	<path class="st6" d="M118.7,36.9c0-5,3.4-8.1,7-8.1c4.1,0,6.3,2.9,6.3,7.3c0,0.6-0.1,1.3-0.1,1.6h-10c0.3,2.9,2.1,4.7,4.8,4.7
		c1.4,0,2.5-0.4,3.7-1.1l1.1,2c-1.4,1-3.2,1.6-5.2,1.6C122,44.9,118.7,41.9,118.7,36.9z M129.2,35.5c0-2.7-1.2-4.2-3.4-4.2
		c-1.9,0-3.6,1.5-3.9,4.2H129.2z"/>
	<linearGradient id="SVGID_9_" gradientUnits="userSpaceOnUse" x1="135.5605" y1="36.6367" x2="144.6323" y2="36.6367">
		<stop  offset="2.788190e-02" style="stop-color:#00FDFA"/>
		<stop  offset="0.9987" style="stop-color:#019DE5"/>
	</linearGradient>
	<path class="st7" d="M135.6,29.1h2.6l0.3,2.8h0.1c1.1-2,2.7-3.2,4.4-3.2c0.8,0,1.3,0.1,1.7,0.3l-0.6,2.8c-0.5-0.2-0.9-0.3-1.5-0.3
		c-1.3,0-2.8,0.9-3.8,3.3v9.6h-3.2V29.1z"/>
	<linearGradient id="SVGID_10_" gradientUnits="userSpaceOnUse" x1="145.584" y1="34.2287" x2="160.0322" y2="34.2287">
		<stop  offset="2.788190e-02" style="stop-color:#00FDFA"/>
		<stop  offset="0.9987" style="stop-color:#019DE5"/>
	</linearGradient>
	<path class="st8" d="M145.6,42.6l10.3-15.9h-9.4v-2.7h13.4v1.9l-10.3,15.9H160v2.7h-14.4V42.6z"/>
	<linearGradient id="SVGID_11_" gradientUnits="userSpaceOnUse" x1="161.9902" y1="36.8188" x2="175.29" y2="36.8188">
		<stop  offset="2.788190e-02" style="stop-color:#00FDFA"/>
		<stop  offset="0.9987" style="stop-color:#019DE5"/>
	</linearGradient>
	<path class="st9" d="M162,36.9c0-5,3.4-8.1,7-8.1c4.1,0,6.3,2.9,6.3,7.3c0,0.6-0.1,1.3-0.1,1.6h-10c0.3,2.9,2.1,4.7,4.8,4.7
		c1.4,0,2.5-0.4,3.7-1.1l1.1,2c-1.4,1-3.2,1.6-5.2,1.6C165.3,44.9,162,41.9,162,36.9z M172.5,35.5c0-2.7-1.2-4.2-3.4-4.2
		c-1.9,0-3.6,1.5-3.9,4.2H172.5z"/>
	<linearGradient id="SVGID_12_" gradientUnits="userSpaceOnUse" x1="178.9004" y1="36.6367" x2="187.9727" y2="36.6367">
		<stop  offset="2.788190e-02" style="stop-color:#00FDFA"/>
		<stop  offset="0.9987" style="stop-color:#019DE5"/>
	</linearGradient>
	<path class="st10" d="M178.9,29.1h2.6l0.3,2.8h0.1c1.1-2,2.7-3.2,4.4-3.2c0.8,0,1.3,0.1,1.7,0.3l-0.6,2.8c-0.5-0.2-0.9-0.3-1.5-0.3
		c-1.3,0-2.8,0.9-3.8,3.3v9.6h-3.2V29.1z"/>
	<linearGradient id="SVGID_13_" gradientUnits="userSpaceOnUse" x1="188.9512" y1="36.8188" x2="203.4551" y2="36.8188">
		<stop  offset="2.788190e-02" style="stop-color:#00FDFA"/>
		<stop  offset="0.9987" style="stop-color:#019DE5"/>
	</linearGradient>
	<path class="st11" d="M189,36.9c0-5.2,3.4-8.1,7.3-8.1c3.8,0,7.3,3,7.3,8.1c0,5.1-3.4,8-7.3,8C192.4,44.9,189,42,189,36.9z
		 M200.2,36.9c0-3.3-1.5-5.5-3.9-5.5c-2.4,0-3.9,2.2-3.9,5.5c0,3.2,1.5,5.4,3.9,5.4C198.6,42.3,200.2,40.1,200.2,36.9z"/>
	<linearGradient id="SVGID_14_" gradientUnits="userSpaceOnUse" x1="205.4141" y1="34.2287" x2="229.1582" y2="34.2287">
		<stop  offset="2.788190e-02" style="stop-color:#00FDFA"/>
		<stop  offset="0.9987" style="stop-color:#019DE5"/>
	</linearGradient>
	<path class="st12" d="M205.4,23.9h3.4l1.9,10.7l1.1,6.6h0.1c0.4-2.2,0.9-4.4,1.4-6.6l2.7-10.7h2.9l2.7,10.7
		c0.5,2.2,0.9,4.4,1.4,6.6h0.1c0.3-2.2,0.7-4.5,1-6.6l2-10.7h3.1l-4.1,20.6h-4l-2.8-11.5c-0.4-1.6-0.7-3.2-1-4.7h-0.1
		c-0.3,1.6-0.6,3.1-1,4.7l-2.7,11.5h-3.9L205.4,23.9z"/>
	<linearGradient id="SVGID_15_" gradientUnits="userSpaceOnUse" x1="230.8916" y1="36.8188" x2="243.3232" y2="36.8188">
		<stop  offset="2.788190e-02" style="stop-color:#00FDFA"/>
		<stop  offset="0.9987" style="stop-color:#019DE5"/>
	</linearGradient>
	<path class="st13" d="M230.9,40.4c0-3.3,2.8-5,9.2-5.7c0-1.8-0.7-3.4-2.9-3.4c-1.6,0-3.1,0.7-4.5,1.6l-1.2-2.2c1.6-1,3.8-2,6.2-2
		c3.8,0,5.6,2.4,5.6,6.5v9.3h-2.6l-0.3-1.8h-0.1c-1.4,1.2-3.1,2.1-4.9,2.1C232.8,44.9,230.9,43.2,230.9,40.4z M240.1,40.6v-3.8
		c-4.6,0.6-6.1,1.7-6.1,3.4c0,1.5,1,2.1,2.4,2.1C237.8,42.3,238.8,41.7,240.1,40.6z"/>
	<linearGradient id="SVGID_16_" gradientUnits="userSpaceOnUse" x1="247.8848" y1="33.5568" x2="252.8135" y2="33.5568">
		<stop  offset="2.788190e-02" style="stop-color:#00FDFA"/>
		<stop  offset="0.9987" style="stop-color:#019DE5"/>
	</linearGradient>
	<path class="st14" d="M247.9,40.9V22.2h3.2v18.9c0,0.9,0.4,1.2,0.8,1.2c0.1,0,0.3,0,0.5-0.1l0.4,2.4c-0.4,0.1-1,0.3-1.7,0.3
		C248.8,44.9,247.9,43.4,247.9,40.9z"/>
	<linearGradient id="SVGID_17_" gradientUnits="userSpaceOnUse" x1="256.2285" y1="33.5568" x2="261.1572" y2="33.5568">
		<stop  offset="2.788190e-02" style="stop-color:#00FDFA"/>
		<stop  offset="0.9987" style="stop-color:#019DE5"/>
	</linearGradient>
	<path class="st15" d="M256.2,40.9V22.2h3.2v18.9c0,0.9,0.4,1.2,0.8,1.2c0.1,0,0.3,0,0.5-0.1l0.4,2.4c-0.4,0.1-1,0.3-1.7,0.3
		C257.1,44.9,256.2,43.4,256.2,40.9z"/>
	<linearGradient id="SVGID_18_" gradientUnits="userSpaceOnUse" x1="263.4795" y1="36.8188" x2="276.7793" y2="36.8188">
		<stop  offset="2.788190e-02" style="stop-color:#00FDFA"/>
		<stop  offset="0.9987" style="stop-color:#019DE5"/>
	</linearGradient>
	<path class="st16" d="M263.5,36.9c0-5,3.4-8.1,7-8.1c4.1,0,6.3,2.9,6.3,7.3c0,0.6-0.1,1.3-0.1,1.6h-10c0.3,2.9,2.1,4.7,4.8,4.7
		c1.4,0,2.5-0.4,3.7-1.1l1.1,2c-1.4,1-3.2,1.6-5.2,1.6C266.8,44.9,263.5,41.9,263.5,36.9z M274,35.5c0-2.7-1.2-4.2-3.4-4.2
		c-1.9,0-3.6,1.5-3.9,4.2H274z"/>
	<linearGradient id="SVGID_19_" gradientUnits="userSpaceOnUse" x1="278.3457" y1="34.8869" x2="288.2852" y2="34.8869">
		<stop  offset="2.788190e-02" style="stop-color:#00FDFA"/>
		<stop  offset="0.9987" style="stop-color:#019DE5"/>
	</linearGradient>
	<path class="st17" d="M280.6,39.5v-7.8h-2.2v-2.4l2.4-0.2l0.4-4.3h2.7v4.3h4v2.6h-4v7.8c0,1.8,0.6,2.8,2.2,2.8
		c0.5,0,1.2-0.2,1.7-0.4l0.6,2.4c-0.9,0.3-1.9,0.6-3,0.6C281.8,44.9,280.6,42.7,280.6,39.5z"/>
</g>
</svg>
